<?xml version="1.0" encoding="iso-8859-1"?>
<!-- Generator: Adobe Illustrator 21.0.0, SVG Export Plug-In . SVG Version: 6.00 Build 0)  -->
<svg version="1.1" id="Layer_1" xmlns="http://www.w3.org/2000/svg" xmlns:xlink="http://www.w3.org/1999/xlink" x="0px" y="0px"
	 viewBox="0 0 100.353 100.353" style="enable-background:new 0 0 100.353 100.353;" xml:space="preserve">
<g>
	<path d="M41.865,82.88c-8.43,0-16.338-0.312-21.061-1.251c-4.665-0.925-10.521-4.793-13.087-11.348
		C4.08,60.999,2.574,45.737,10.3,33.271c4.68-7.552,11.826-14,17.378-15.679c5.074-1.54,18.625,1.212,20.154,1.531
		c0.078,0.016,0.154,0.039,0.229,0.067c1.409,0.539,3.451,1.8,3.971,3.61c0.512-0.337,1.101-0.657,1.772-0.951
		c2.638-1.146,6.17,0.075,6.563,0.217c0.245,0.089,0.462,0.24,0.631,0.439C63.391,25.321,71.2,34.794,71.2,38.444
		c0,3.895-6.138,8.374-10.929,11.277h29.785c0.194,0,0.386,0.038,0.566,0.111c0.189,0.077,4.63,1.939,4.63,6.655
		c0,4.717-4.269,6.456-4.451,6.527c-0.175,0.069-0.362,0.104-0.55,0.104h-3.256c0.539,0.825,0.931,1.815,0.931,2.947
		c0,4.069-3.848,6.076-4.011,6.16c-0.211,0.107-0.444,0.164-0.681,0.164h-2.948c0.397,0.836,0.688,1.862,0.688,3.073
		c0,3.958-2.81,5.866-2.929,5.945c-0.218,0.145-0.471,0.229-0.732,0.247C76.168,81.729,58.055,82.88,41.865,82.88z M31.854,20.12
		c-1.353,0-2.503,0.101-3.306,0.344c-4.837,1.462-11.438,7.513-15.698,14.387c-7.142,11.523-5.724,25.698-2.34,34.335l0,0
		c2.459,6.283,7.995,8.927,10.878,9.499c12.634,2.511,50.559,0.292,55.253,0.004c0.45-0.426,1.33-1.481,1.33-3.228
		c0-2.162-1.596-3.329-1.612-3.34c-0.539-0.374-0.773-1.055-0.577-1.681s0.776-1.052,1.432-1.052h5.606
		c0.621-0.408,2.104-1.566,2.104-3.323c0-1.416-1.806-2.78-2.439-3.146c-0.587-0.34-0.875-1.033-0.7-1.688s0.768-1.112,1.446-1.112
		h6.687c0.621-0.324,2.333-1.418,2.333-3.632c0-2.248-1.867-3.42-2.531-3.766H54.478c-0.695,0-1.299-0.477-1.459-1.153
		c-0.161-0.676,0.165-1.374,0.785-1.687C59.61,46.957,68.2,41.299,68.2,38.444c0-1.713-4.73-8.354-9.213-13.673
		c-0.946-0.278-2.851-0.668-3.983-0.173c-2.429,1.063-3.104,2.426-2.958,3.034c0.145,0.614,0.913,1.673,1.591,2.607
		c1.487,2.05,3.173,4.373,2.467,6.752c-0.81,2.746-4.884,4.359-12.821,5.075c-3.549,0.324-12.783-1.687-14.104-6.073
		c-0.912-3.032,3.332-7.36,5.296-8.3c2.085-0.987,4.84-0.406,7.504,0.156c1.727,0.365,3.683,0.778,4.614,0.476
		c0.665-0.214,1.875-2.141,2.549-4.563c0.119-0.437-1.005-1.297-2.051-1.73C43.933,21.382,36.64,20.12,31.854,20.12z M37.178,30.16
		c-0.559,0-1.045,0.069-1.413,0.244c-1.589,0.761-3.893,3.877-3.712,4.732c0.611,2.028,7.51,4.251,10.958,3.945
		c9.335-0.842,10.154-2.727,10.217-2.939c0.286-0.963-1.046-2.798-2.019-4.138c-0.599-0.825-1.176-1.621-1.585-2.403
		c-0.591,0.729-1.292,1.32-2.108,1.583c-1.691,0.545-3.859,0.089-6.155-0.396C39.939,30.487,38.388,30.16,37.178,30.16z"/>
	<path d="M83.233,63.12H53.919c-0.829,0-1.5-0.671-1.5-1.5s0.671-1.5,1.5-1.5h29.314c0.829,0,1.5,0.671,1.5,1.5
		S84.061,63.12,83.233,63.12z"/>
	<path d="M77.214,72.391H53.918c-0.829,0-1.5-0.671-1.5-1.5s0.671-1.5,1.5-1.5h23.296c0.829,0,1.5,0.671,1.5,1.5
		S78.043,72.391,77.214,72.391z"/>
</g>
</svg>
