<?xml version="1.0" encoding="iso-8859-1"?>
<!-- Generator: Adobe Illustrator 21.0.0, SVG Export Plug-In . SVG Version: 6.00 Build 0)  -->
<svg version="1.1" id="Layer_1" xmlns="http://www.w3.org/2000/svg" xmlns:xlink="http://www.w3.org/1999/xlink" x="0px" y="0px"
	 viewBox="0 0 100.353 100.352" style="enable-background:new 0 0 100.353 100.352;" xml:space="preserve">
<g>
	<path d="M94.249,36.189H5.752c-0.829,0-1.5,0.671-1.5,1.5v9.245c0,0.4,0.16,0.785,0.445,1.066c0.285,0.281,0.696,0.41,1.071,0.434
		l32.236-0.339v11.159L4.66,94.673c-0.41,0.436-0.522,1.074-0.285,1.623s0.778,0.905,1.377,0.905h11.052
		c0.32,0,0.632-0.103,0.89-0.293l30.161-22.244h17.65v21.037c0,0.829,0.671,1.5,1.5,1.5h12.277c0.829,0,1.5-0.671,1.5-1.5v-31.92
		c0-0.829-0.671-1.5-1.5-1.5h-17.16V48.434h32.126c0.829,0,1.5-0.671,1.5-1.5v-9.245C95.749,36.861,95.078,36.189,94.249,36.189z
		 M92.749,45.434H60.623c-0.829,0-1.5,0.671-1.5,1.5v16.847c0,0.829,0.671,1.5,1.5,1.5h17.16v28.92h-9.277V73.164
		c0-0.829-0.671-1.5-1.5-1.5H47.362c-0.32,0-0.632,0.103-0.89,0.293L16.311,94.201H9.224l31.372-33.324
		c0.262-0.278,0.408-0.646,0.408-1.028V46.58c0-0.4-0.16-0.785-0.445-1.066c-0.281-0.278-0.66-0.434-1.055-0.434
		c-0.005,0-0.011,0-0.016,0L7.252,45.419V39.19h85.497L92.749,45.434L92.749,45.434z"/>
	<path d="M50.001,26.418c6.512,0,11.811-5.298,11.811-11.81s-5.298-11.81-11.811-11.81s-11.81,5.298-11.81,11.81
		S43.488,26.418,50.001,26.418z M50.001,5.798c4.858,0,8.811,3.952,8.811,8.81s-3.953,8.81-8.811,8.81s-8.81-3.952-8.81-8.81
		S45.143,5.798,50.001,5.798z"/>
</g>
</svg>
